<?xml version="1.0" encoding="UTF-8" standalone="no"?><svg xmlns="http://www.w3.org/2000/svg" xmlns:xlink="http://www.w3.org/1999/xlink" fill="#000000" height="177.5" preserveAspectRatio="xMidYMid meet" version="1" viewBox="-3.1 -2.9 505.7 177.5" width="505.7" zoomAndPan="magnify"><g id="change1_1"><path d="M166.144,116.33c-12.219-2.469-8.758-20.312,3.457-17.844,1.192,.241,2.383,.483,3.574,.722,12.22,2.469,8.758,20.311-3.456,17.843-1.192-.24-2.383-.482-3.575-.722h0Zm127.611,.345c.704-.44,1.408-.88,2.112-1.321,10.197-6.376-.746-21.711-10.96-15.325-.704,.44-1.408,.88-2.113,1.321-10.198,6.376,.745,21.712,10.96,15.325h0Zm116.733,25.336c7.052,9.861,22.912-.031,15.848-9.909-7.052-9.86-22.911,.031-15.848,9.909h0ZM53.267,18.353c1.192,.24,2.383,.482,3.575,.721,12.214,2.469,15.676-15.373,3.455-17.842-1.191-.241-2.382-.483-3.574-.723-12.215-2.468-15.676,15.374-3.456,17.844h0ZM218.844,164.251c.487,.68,.974,1.361,1.462,2.043,4.299,6.011,13.885,8.353,20.106,4.062,6.241-4.305,8.273-12.482,3.666-18.925-.488-.682-.974-1.363-1.461-2.043-4.3-6.013-13.886-8.354-20.106-4.063-6.24,4.305-8.274,12.482-3.666,18.926h0Zm228.659-77.911c10.578,14.792,34.366-.047,23.771-14.863-10.578-14.792-34.367,.046-23.771,14.863h0Zm-77.632,19.931c.218-1.122,.435-2.243,.652-3.365,1.112-5.749-8.364-7.666-9.478-1.915-.217,1.121-.434,2.243-.651,3.364-1.114,5.749,8.364,7.667,9.478,1.915h0Zm121.319-56.117c3.526,4.93,11.455-.015,7.923-4.954-3.527-4.931-11.455,.015-7.923,4.954h0ZM87.27,6.993c3.526,4.93,11.457-.015,7.924-4.955-3.526-4.93-11.456,.017-7.924,4.955h0Zm17.247,33.203c.704-.441,1.408-.881,2.113-1.321,5.099-3.189-.374-10.856-5.48-7.663-.704,.44-1.409,.881-2.113,1.321-5.098,3.187,.374,10.856,5.48,7.663h0Zm65.87,112.951c3.526,4.931,11.456-.015,7.924-4.954-3.526-4.93-11.455,.016-7.924,4.954h0Zm57.052-35.67c3.527,4.93,11.455-.015,7.923-4.954-3.526-4.93-11.455,.016-7.923,4.954h0Zm-129.19,24.59c3.526,4.93,11.455-.016,7.924-4.955-3.526-4.93-11.456,.017-7.924,4.955h0ZM7.517,32.833c.705-.441,1.409-.881,2.113-1.321,5.1-3.189-.373-10.856-5.48-7.663-.704,.44-1.408,.88-2.113,1.321-5.098,3.187,.374,10.855,5.48,7.663h0Zm47.723,14.887c3.526,4.93,11.455-.016,7.923-4.954-3.526-4.931-11.455,.015-7.923,4.954h0ZM172.897,15.555c3.526,4.93,11.455-.015,7.923-4.954-3.526-4.93-11.455,.015-7.923,4.954h0Zm-26.996,43.492c3.526,4.93,11.457-.015,7.924-4.954-3.526-4.93-11.455,.016-7.924,4.954h0Zm310.967,62.836c3.526,4.93,11.457-.016,7.924-4.955-3.526-4.93-11.455,.017-7.924,4.955h0Z" fill="#f4b324"/></g></svg>