<?xml version="1.0" encoding="UTF-8" standalone="no"?><svg xmlns="http://www.w3.org/2000/svg" xmlns:xlink="http://www.w3.org/1999/xlink" fill="#000000" height="168.2" preserveAspectRatio="xMidYMid meet" version="1" viewBox="0.0 -0.5 364.2 168.2" width="364.2" zoomAndPan="magnify"><g id="change1_1"><path d="M361.3,1.1c-4.1,12.8-14.6,22.4-27.6,25.6c-14.1,3.5-28.9,0.1-42.2-5.1c-7.2-2.9-14.2-6.3-21.3-9.6 c-6.9-3.2-13.8-6.6-21.2-8.7c-6.8-1.9-14-2.5-20.8-0.5c-5.4,1.6-10.2,4.6-14.7,7.9c-9.1,6.8-17.5,15.7-28.8,18.6 c-11.6,3-23.5-1.2-34.2-5.4c-10.9-4.3-22.1-9.4-34.1-9.5c-13-0.1-23.2,7.3-32.9,15c-5.1,4.1-10.2,8.2-16.1,11.3 c-5.8,3-12,5.1-18.4,6.3c-12.8,2.4-26.4,1-38.4-4.2c-2.9-1.3-5.7-2.8-8.4-4.4c-0.6-0.4-1.1-0.3-1.6,0C0.3,38.7,0,39.1,0,39.8 c0,13.5,0,107,0,120.6c0,1.9,0,3.8,0,5.7c0,0.8,0.7,1.5,1.5,1.5c3.2,0,6.5,0,9.7,0c8.7,0,17.5,0,26.2,0c13,0,25.9,0,38.9,0 c15.8,0,31.6,0,47.5,0c17.3,0,34.5,0,51.8,0c17.5,0,35.1,0,52.6,0c16.2,0,32.5,0,48.7,0c13.8,0,27.6,0,41.3,0c9.9,0,19.8,0,29.7,0 c4.7,0,9.4,0.1,14,0c0.2,0,0.4,0,0.6,0c0.8,0,1.5-0.7,1.5-1.5c0-9.5,0-99.1,0-108.6c0-15.1,0-30.3,0-45.4c0-3.5,0-7,0-10.5 C364.2-0.3,361.8-0.5,361.3,1.1z" fill="#3f0100"/></g></svg>