<?xml version="1.0" encoding="UTF-8" standalone="no"?><svg xmlns="http://www.w3.org/2000/svg" xmlns:xlink="http://www.w3.org/1999/xlink" fill="#000000" height="510.9" id="Layer_2" preserveAspectRatio="xMidYMid meet" version="1.1" viewBox="-8.6 -10.9 370.2 510.9" width="370.2" x="0" xml:space="preserve" y="0" zoomAndPan="magnify"><g><linearGradient gradientUnits="userSpaceOnUse" id="SVGID_2_" x1="82.365" x2="210.749" xlink:actuate="onLoad" xlink:show="other" xlink:type="simple" y1="260.583" y2="260.583"><stop offset="0" stop-color="#bd0000"/><stop offset="1" stop-color="#bd0000"/></linearGradient><path d="M192.7516785,319.301239H82.3652344V201.8657532h128.3833313v99.4385986 C210.7485657,311.2437439,202.6910858,319.301239,192.7516785,319.301239z" fill="url(#SVGID_2_)"/><linearGradient gradientUnits="userSpaceOnUse" id="SVGID_3_" x1="89.08" x2="165.638" xlink:actuate="onLoad" xlink:show="other" xlink:type="simple" y1="344.359" y2="316.451"><stop offset="0" stop-color="#000000"/><stop offset="1" stop-color="#ffffff"/></linearGradient><path d="M156.26651,344.6795959H99.7759323c-6.7297134,0-12.1852264-5.4555054-12.1852264-12.1852417 V319.301239h80.8610306v13.1931152C168.4517365,339.2240906,162.9962311,344.6795959,156.26651,344.6795959z" fill="url(#SVGID_3_)"/><linearGradient gradientUnits="userSpaceOnUse" id="SVGID_4_" x1="211.276" x2="254.514" xlink:actuate="onLoad" xlink:show="other" xlink:type="simple" y1="209.517" y2="-1.169"><stop offset="0" stop-color="#bd0000"/><stop offset="1" stop-color="#bd0000"/></linearGradient><path d="M220.7689362,227.0318604L118.673996,96.1364365l98.2147217-76.5531158 C253.0218201-8.6258011,305.1811218-2.2026391,333.390686,33.9305115l0,0 c28.2091675,36.1326523,21.7859497,88.2923965-14.3471375,116.5015106L220.7689362,227.0318604z" fill="url(#SVGID_4_)"/><linearGradient gradientUnits="userSpaceOnUse" id="SVGID_5_" x1="19.757" x2="146.586" xlink:actuate="onLoad" xlink:show="other" xlink:type="simple" y1="277.268" y2="179.834"><stop offset="0" stop-color="#000000"/><stop offset="1" stop-color="#ffffff"/></linearGradient><path d="M220.7689362,227.0318604l-84.6369324,65.9699402 c-36.1327057,28.2096252-88.2921448,21.7857666-116.501564-14.3466797l0,0 c-28.2093105-36.1333466-21.7859554-88.2924042,14.3467522-116.5020142l84.6968079-66.0166702L220.7689362,227.0318604z" fill="url(#SVGID_5_)"/><linearGradient gradientUnits="userSpaceOnUse" id="SVGID_6_" x1="99.369" x2="252.088" xlink:actuate="onLoad" xlink:show="other" xlink:type="simple" y1="156.669" y2="156.669"><stop offset="0" stop-color="#000000"/><stop offset="1" stop-color="#ffffff"/></linearGradient><path d="M252.0879211,218.2650299l-33.8738403,26.4206848 c-7.4970245,5.8474731-39.8288879-23.0727081-72.2149811-64.5947723s-52.5628586-79.9229126-45.065834-85.7703934 l33.8731003-26.4201126c-7.4942245,5.8500671,12.6818695,44.2490463,45.0668182,85.7696228 C212.2588959,195.1916351,244.5903625,224.1113281,252.0879211,218.2650299L252.0879211,218.2650299z" fill="url(#SVGID_6_)"/><linearGradient gradientUnits="userSpaceOnUse" id="SVGID_7_" x1="64.444" x2="122.111" xlink:actuate="onLoad" xlink:show="other" xlink:type="simple" y1="305.686" y2="248.019"><stop offset="0" stop-color="#bd0000"/><stop offset="1" stop-color="#bd0000"/></linearGradient><path d="M138.9687805,319.3012695H78.3850327l1.7403183-117.4354858h10.9476624 c17.4518051,0,31.5984802,14.1466827,31.5984802,31.5979919v66.9284973c0,9.5407715,7.0728455,17.4093933,16.2571259,18.7017517 L138.9687805,319.3012695z" fill="url(#SVGID_7_)"/><linearGradient gradientUnits="userSpaceOnUse" id="SVGID_8_" x1="48.528" x2="128.021" xlink:actuate="onLoad" xlink:show="other" xlink:type="simple" y1="260.583" y2="260.583"><stop offset="0" stop-color="#000000"/><stop offset="1" stop-color="#ffffff"/></linearGradient><path d="M127.9810486,319.0940857l0.0401764,0.2071533H67.4373856 c-10.443367,0-18.9095345-8.4655457-18.9095345-18.9089355v-66.9284363c0-17.4514313,14.1466866-31.598114,31.5974922-31.598114 c17.4520645,0,31.5987549,14.1466827,31.5987549,31.598114v66.9284363 C111.7240982,309.933075,118.796814,317.8016968,127.9810486,319.0940857z" fill="url(#SVGID_8_)"/><linearGradient gradientUnits="userSpaceOnUse" id="SVGID_9_" x1="16.282" x2="239.76" xlink:actuate="onLoad" xlink:show="other" xlink:type="simple" y1="474.647" y2="474.647"><stop offset="0" stop-color="#000000"/><stop offset="1" stop-color="#ffffff"/></linearGradient><path d="M239.7604675,497.9607239v0.000061H16.2819748v-0.000061 c0-25.7512512,20.8755188-46.62677,46.6267776-46.62677h130.2249451 C218.8849487,451.3339539,239.7604675,472.2094727,239.7604675,497.9607239z" fill="url(#SVGID_9_)"/><linearGradient gradientUnits="userSpaceOnUse" id="SVGID_10_" x1="128.021" x2="128.021" xlink:actuate="onLoad" xlink:show="other" xlink:type="simple" y1="344.27" y2="451.578"><stop offset="0" stop-color="#000000"/><stop offset="1" stop-color="#ffffff"/></linearGradient><path d="M146.5569,451.3339539h-37.0713577V344.6795959H146.5569V451.3339539z" fill="url(#SVGID_10_)"/><linearGradient gradientUnits="userSpaceOnUse" id="SVGID_11_" x1="61.179" x2="89.603" xlink:actuate="onLoad" xlink:show="other" xlink:type="simple" y1="233.067" y2="233.067"><stop offset="0" stop-color="#000000"/><stop offset="1" stop-color="#ffffff"/></linearGradient><path d="M89.6030655,233.0669556c0,7.848999-6.3628693,14.2118683-14.2118683,14.2118683 s-14.2118683-6.3628693-14.2118683-14.2118683s6.3628693-14.2118683,14.2118683-14.2118683 S89.6030655,225.2179565,89.6030655,233.0669556z" fill="url(#SVGID_11_)"/><g id="change1_1"><path d="M334.9982605,32.6756248c-28.8540955-36.962101-82.4007416-43.5570717-119.3648376-14.7009716 l-66.6359711,51.9384842c-6.7812347-4.3891754-12.2685699-6.0869713-15.4350739-3.6266861 c-0.003479,0.0024948-0.0074768,0.0029907-0.0109558,0.0054855v0.0009918 c-0.0019989,0.0009995-0.0039825,0.0019913-0.0039825,0.0029907L99.6791229,92.7116547 c-1.2869186,1.0040359-4.5341034,3.5440063-0.2709351,15.85392l-66.6867676,51.9803238 c-17.905323,13.9788208-29.2943668,34.0934296-32.0714073,56.6384277 c-2.7750463,22.5450134,3.3946009,44.8210754,17.3734226,62.7264099 c7.856987,10.0640259,17.6528206,18.0689392,28.7286034,23.6436768 c1.5329475,10.0528259,10.2116928,17.7868042,20.686348,17.7868042h10.9467926h3.9802856h3.1854248v11.1539612 c0,7.8430481,6.3808136,14.2238464,14.2258453,14.2238464h7.6697311v102.5751343H62.9082642 c-20.0005531,0-37.2156029,12.1318359-44.6900978,29.4198608c-0.0229111,0.0532837-0.0488091,0.1048279-0.0712204,0.1578674 c-2.5105896,5.8643494-3.9045868,12.3158875-3.9045868,19.0881653c0,1.1275635,0.9123983,2.0399475,2.0399475,2.0399475h223.47789 c1.1275482,0,2.0399475-0.912384,2.0399475-2.0399475c0-6.771759-1.3939972-13.2232971-3.9045868-19.0876465 c-0.0229034-0.0535583-0.0488129-0.1053467-0.0717163-0.1588745 c-7.4745026-17.2877808-24.6895447-29.4193726-44.6896057-29.4193726h-44.5381927V346.7190247h7.6697235 c7.8450317,0,14.2258453-6.3807983,14.2258453-14.2238464V321.341217h22.2601318 c11.0484009,0,20.036911-8.9885254,20.036911-20.0369263v-54.3292999c1.0906982,0.3003082,2.1076813,0.4619293,3.0380096,0.4619293 c1.4203949,0,2.6455536-0.3665619,3.6416321-1.1434937l33.8553619-26.4075012 c0.0059814-0.0047455,0.0129547-0.0074768,0.0189209-0.012207c1.2869263-1.0040436,4.5331268-3.5440063,0.2694397-15.8536682 l66.686264-51.9785919c0-0.0019836,0-0.0019836,0-0.0019836c17.9053345-13.9788208,29.2943726-34.0914383,32.0714111-56.6384354 C355.1467285,72.8570251,348.9770813,50.5799522,334.9982605,32.6756248z M348.9153442,84.1601563l-5.2706909-1.4918594 l3.6132202-12.7651138l0.2838745,0.0801849C348.4143066,74.6340103,348.875,79.3730545,348.9153442,84.1601563z M348.3196716,94.9029999c-0.2823792,2.2941971-0.6777954,4.5555191-1.1449585,6.7926865l-8.2549133-2.3367767l3.613739-12.7658539 l6.3060913,1.785202C348.7460022,90.548439,348.5881348,92.7236023,348.3196716,94.9029999z M319.0223389,147.8116608 l-10.3108215-2.9187317l3.613739-12.7656097l12.1087036,3.4277191l-2.8612061,10.1071014 C320.7410583,146.3952484,319.8874207,147.1089325,319.0223389,147.8116608z M285.1330872,174.2756958l-1.90448-0.5393677 l3.613739-12.7661133l11.2685242,3.1896667L285.1330872,174.2756958z M246.0593262,220.3777313l-29.1011353,22.7003937 c-0.797348,0.6193085-2.2152557,0.5513153-4.1695404-0.172821c-0.624527-0.2315826-1.3073273-0.5353851-2.0399475-0.9019318 c-0.6404724-0.3202362-1.3197784-0.6912842-2.0399475-1.1143646c-0.4367676-0.2567291-0.8825073-0.525177-1.3471832-0.8192596 c-0.5772095-0.3650513-1.1788483-0.7634888-1.7984009-1.1860657c-0.56427-0.3852386-1.1454773-0.7933655-1.7441101-1.2264099 c-0.4691467-0.338913-0.9462585-0.6897736-1.4353333-1.0575714c-0.662384-0.4985352-1.3417053-1.0209808-2.0409393-1.5725555 c-0.6633911-0.5236816-1.3437042-1.0717621-2.0389557-1.6432495c-8.0910645-6.6477661-18.3077393-16.5337524-29.8451996-29.4791412 c-0.6026154-0.6758423-1.2022552-1.3461914-1.8118439-2.0389557c-0.5881805-0.6683655-1.1848297-1.3573914-1.7789764-2.0409393 c-5.5117493-6.3402252-11.2884521-13.3308868-17.2618713-20.989151 c-15.5904541-19.9891052-28.8341827-39.860672-37.290802-55.9571304c-2.7182693-5.1733322-4.654129-9.426796-6.0301971-12.9401779 c-0.2719269-0.6947556-0.5254288-1.3636169-0.7535248-1.9993515c-0.2574844-0.7181702-0.4895706-1.4007263-0.6947556-2.0461731 c-2.0020981-6.3003845-1.6101456-9.2123871-0.6474457-9.9639206l29.099144-22.6974106 c0.0333557,0.5597916,0.0980988,1.1474686,0.1847687,1.7548218c0.0209198,0.1446762,0.0537872,0.3000641,0.0771942,0.4474869 c0.0801849,0.4970322,0.1713257,1.0040359,0.2838745,1.5299606c0.0498047,0.2325821,0.1095734,0.4736252,0.1658478,0.7116852 c0.1100616,0.4646683,0.2281036,0.9368057,0.3610687,1.4216385c0.0727234,0.2642136,0.1489105,0.5316544,0.2281036,0.80159 c0.1444244,0.4915619,0.3008118,0.9930801,0.4671631,1.5025711c0.0806732,0.2475204,0.1593628,0.4937973,0.2455292,0.7455521 c0.0074615,0.0219193,0.013443,0.0428314,0.0214081,0.064743c0.1952362,0.5727463,0.4083862,1.1591797,0.6295166,1.7525864 c0.0254059,0.0684814,0.0493011,0.1359634,0.074707,0.204689c0.0577698,0.1529007,0.1085663,0.3003159,0.1673431,0.4547043 c0.1917419,0.4995346,0.4004211,1.013504,0.6085968,1.5267258c0.1354675,0.3354263,0.2634583,0.6646271,0.4063873,1.0052795 c0.0448303,0.1075821,0.0956268,0.219635,0.141449,0.3274612c0.3192444,0.7542725,0.6534119,1.5197525,1.0040283,2.2991714 c0.1324768,0.2940903,0.2739258,0.5951538,0.4108887,0.8927307c0.2803955,0.6093445,0.5662537,1.2226715,0.8645782,1.8454666 c0.1628571,0.3401566,0.3296967,0.6833038,0.4980469,1.0274429c0.2943268,0.6031189,0.5966339,1.2112198,0.9064178,1.8252945 c0.1768036,0.3506165,0.3536072,0.700737,0.5353851,1.0545883c0.1170349,0.2283478,0.2290955,0.4529572,0.3486176,0.6825562 c0.2201385,0.4248199,0.4522247,0.8576126,0.678833,1.2869186c0.1673279,0.3162537,0.3301849,0.6292648,0.5005188,0.9477615 c0.4885712,0.9128952,0.990097,1.834259,1.5060577,2.7645874v0.0002441 c0.0378418,0.0684814,0.0732117,0.1349716,0.1110535,0.2034531c0.1384583,0.248764,0.2843781,0.5022659,0.4243317,0.7522736 c0.422821,0.754776,0.8496399,1.5122833,1.2884064,2.2765198c0.1847687,0.3214798,0.3760223,0.646698,0.5632782,0.9699173 c0.3272095,0.5647736,0.6529236,1.1285477,0.9880981,1.6977997c0.0791931,0.1349716,0.1623688,0.2716751,0.2425537,0.4068909 c0.2340698,0.3964386,0.4721375,0.7943649,0.7101898,1.1922989c0.38797,0.649437,0.7794189,1.3001175,1.1763611,1.9537888 c0.2485199,0.4093857,0.4980316,0.8190155,0.7500305,1.2296448c0.4128723,0.6730957,0.830719,1.3476791,1.2520599,2.0240097 c0.2365723,0.3795013,0.4711456,0.758255,0.7102051,1.138504c0.5119781,0.8160324,1.0319214,1.6340561,1.5548553,2.4528198 c0.0667419,0.1050873,0.1329803,0.209671,0.2002106,0.3145065c0.0851593,0.1332245,0.168335,0.2662048,0.2539978,0.3994293 c0.6743469,1.0511017,1.3576355,2.1031952,2.0469208,3.1557922c0.2081757,0.3187408,0.4203491,0.6369858,0.6305084,0.9554749 c0.4880829,0.7418213,0.9781494,1.4828949,1.4726868,2.2239761c0.2719269,0.4076385,0.5463409,0.8142853,0.8197632,1.2216721 c0.0503082,0.0742111,0.0996094,0.1484146,0.1494141,0.2226257c0.3994293,0.5931549,0.7993469,1.185318,1.2017517,1.7769775 c0.2754211,0.4054108,0.5513306,0.8103027,0.8282318,1.2147064c0.4646759,0.6793213,0.9308319,1.3561554,1.3989868,2.0322418 c0.2644501,0.3827362,0.5289154,0.7657166,0.793869,1.1472168c0.5209351,0.7480469,1.0428772,1.4921112,1.5658112,2.2346802 c0.2091827,0.2973175,0.4178467,0.5961456,0.6275177,0.8924713c0.7276306,1.0291901,1.4567566,2.0523987,2.1863708,3.0681458 c0.1504059,0.2094269,0.3008118,0.4151001,0.4512177,0.6237793c0.0831757,0.1155548,0.1663513,0.2298431,0.249527,0.3451385 c0.5005188,0.6932678,1.0010376,1.3850403,1.5010681,2.0708313c0.2594757,0.3553467,0.5179596,0.7064667,0.7769318,1.0595703 c0.4766235,0.6499329,0.9527435,1.296875,1.4278717,1.9383392c0.2789001,0.37677,0.5572968,0.7510376,0.8356934,1.1248169 c0.0039825,0.0054779,0.0079651,0.0109558,0.0119629,0.0164337c0.4586792,0.6150665,0.9153748,1.2246704,1.3710785,1.83078 c0.2729187,0.3630676,0.5463409,0.7266235,0.8182678,1.0862122c0.4940491,0.6531677,0.9846191,1.2971191,1.4741821,1.937851 c0.2261047,0.2953339,0.452713,0.5941467,0.6773376,0.8867493c0.7111816,0.9260864,1.418396,1.8412323,2.11763,2.7379303 c0.5169678,0.6628876,1.0463715,1.3349915,1.577774,2.0083313c0.1484222,0.1887512,0.2948456,0.3752594,0.4447479,0.5647736 c0.1992188,0.2517548,0.4049072,0.5077362,0.6056061,0.7607422c0.4925537,0.6195526,0.985611,1.2396088,1.4886322,1.8661346 c0.1947327,0.2420502,0.3939362,0.4870758,0.5896606,0.7301178c0.0448303,0.0555267,0.0901489,0.111557,0.1349792,0.1673431 c0.4741211,0.5874329,0.9487457,1.1751099,1.4308472,1.7675171c0.2669525,0.3274536,0.5378723,0.6574097,0.8068085,0.9861145 c0.0986176,0.1205139,0.1967316,0.240799,0.2958374,0.3615723c0.3650665,0.4452362,0.7301178,0.8904877,1.0996552,1.3377228 c0.2838898,0.3441315,0.5712433,0.68927,0.8576202,1.0344086c0.4681549,0.5637817,0.9373016,1.1280518,1.4114227,1.6938171 c0.2878723,0.3441467,0.5777283,0.6887817,0.8680725,1.0334167c0.1250153,0.1484222,0.2485199,0.2963257,0.3735352,0.4447479 c0.3540955,0.4195862,0.7097015,0.8391876,1.0662842,1.2590332c0.2973328,0.3496094,0.5951538,0.6994781,0.8939819,1.0493469 c0.1728058,0.2022095,0.3431396,0.4039154,0.5159607,0.6061096c0.311264,0.3630676,0.6250305,0.7261353,0.9377899,1.0892029 c0.3018188,0.3501282,0.6036224,0.6999969,0.9069214,1.0498657c0.4482422,0.5177002,0.8984528,1.0344086,1.3496704,1.5513763 c0.0448303,0.0507965,0.0891571,0.1018372,0.1339722,0.1528931c0.2988281,0.3416443,0.5971527,0.6833038,0.8969574,1.0244598 c0.5169678,0.5881653,1.0364227,1.1738586,1.556366,1.7600403c0.2838745,0.3194885,0.5667572,0.6394806,0.8516388,0.9582214 c0.550827,0.6170654,1.1036377,1.2306519,1.6574554,1.844223c0.2549896,0.2831268,0.5099792,0.5675049,0.765976,0.8496399 c0.6190643,0.6828156,1.2401123,1.3611298,1.8616486,2.0379639c0.1932373,0.2101746,0.3854828,0.4223328,0.5792236,0.6320038 c0.5498199,0.5961456,1.100647,1.1863098,1.651474,1.7764893c1.0991669,1.1781006,2.1993256,2.3467407,3.2989807,3.4964447 c0.1384583,0.1446838,0.2769012,0.286377,0.4153595,0.4305573c0.6698608,0.6982422,1.3397064,1.3922424,2.0080719,2.0775452 c0.1942291,0.1989594,0.3869781,0.3929443,0.5812073,0.5906677c0.0766907,0.0784454,0.1533966,0.1563873,0.2305908,0.2348175 c0.540863,0.5503387,1.0812378,1.0996704,1.6201019,1.6405334c0.3058014,0.3065338,0.6095886,0.6071014,0.9143982,0.9101563 c0.5010223,0.4987793,1.0015411,0.9958191,1.5005646,1.4848938c0.3252258,0.3192291,0.648941,0.6324921,0.9731598,0.9472504 c0.4741364,0.4606781,0.9477692,0.9188843,1.4194031,1.3701019c0.1638489,0.1568756,0.3272095,0.3102722,0.4905701,0.4659119 c0.1743011,0.1658325,0.3486176,0.3314362,0.5224304,0.4957886c0.4552002,0.4308014,0.9084167,0.8571167,1.3606262,1.2779541 c0.3396606,0.3159943,0.6778259,0.6285248,1.0155029,0.938797c0.1508942,0.1387024,0.303299,0.2823792,0.4537048,0.4198456 c0.293335,0.2679291,0.5836945,0.5276642,0.8755341,0.7913666c0.3401642,0.3072968,0.6798248,0.6128387,1.0179901,0.9136505 c0.4337921,0.3862152,0.86409,0.7642365,1.2938843,1.13974c0.3341827,0.2918549,0.668869,0.584198,1.0005646,0.8693237 c0.4307861,0.370285,0.8566132,0.7293701,1.2819366,1.087204c0.3242188,0.2726746,0.6494293,0.5475922,0.9706726,0.8130493 c0.4278107,0.3531036,0.8491364,0.6922607,1.2709808,1.0321808c0.3102722,0.2497559,0.6225433,0.5047455,0.9293213,0.7472992 c0.4352875,0.3436432,0.8625946,0.6698456,1.2909088,0.9978027c0.2111664,0.1616211,0.4243317,0.3282013,0.6334991,0.4858398 c0.0727081,0.0547791,0.1479187,0.1145477,0.2201385,0.1688232c0.3122559,0.2340851,0.6170654,0.4514771,0.9248505,0.67659 c0.1867523,0.1362152,0.3730164,0.272171,0.557785,0.4051514c0.1977234,0.1419373,0.4004211,0.2950745,0.5961456,0.4332886 c0.1967316,0.138443,0.3859863,0.2619629,0.5802155,0.3964386c0.4721375,0.3267059,0.9452667,0.6541595,1.4059448,0.9569702 c0.1284943,0.0844116,0.2515106,0.1571198,0.3790131,0.2395477c0.1095734,0.0709686,0.2171478,0.1367188,0.3262177,0.206192 c0.4133606,0.2637024,0.8282166,0.5299072,1.2316284,0.7726898c0.2729187,0.1643524,0.5363922,0.3095398,0.8043213,0.4639282 c0.3546143,0.2044373,0.7102051,0.4111176,1.0558319,0.5978851c0.2769165,0.1494141,0.5448608,0.2813873,0.8157806,0.419342 c0.3232269,0.1643524,0.6464539,0.3296967,0.9607086,0.4771271c0.272934,0.1279907,0.537384,0.2405396,0.8028412,0.3555908 c0.2993164,0.1294861,0.5966339,0.256485,0.8874969,0.3690491c0.2619629,0.1020966,0.5179443,0.1914825,0.7734375,0.2793884 C245.7296295,220.2562103,245.8999634,220.3274231,246.0593262,220.3777313z M208.7087555,301.3042908 c0,8.7992554-7.1577454,15.9570313-15.957016,15.9570313h-24.3000793h-28.6279907 c-0.1892548-0.0926514-0.394455-0.1568909-0.6105957-0.1872864c-4.0629578-0.5717468-7.6293793-2.5997314-10.2111969-5.5002747 h58.4866486c8.2135773,0,14.8952026-6.6816406,14.8952026-14.893219v-52.7308655l1.6370392-1.2759552 c1.6459961,1.0650482,3.2093353,1.959259,4.6879883,2.6856537V301.3042908z M166.4117126,332.4951782 c0,5.5939026-4.5520325,10.1439514-10.1459503,10.1439514h-9.709671H109.486412h-9.7096786 c-5.5939178,0-10.1459503-4.5500488-10.1459503-10.1439514V321.341217h38.3904724h10.9467926h27.4436646V332.4951782z M232.7130127,477.5526123H23.3294907c7.4227009-14.3341675,22.3547592-24.1785583,39.5787735-24.1785583h46.5781479h37.0696793 h46.5781403C210.3582458,453.374054,225.2903137,463.2184448,232.7130127,477.5526123z M18.3680744,495.920105 c0.2280998-5.0296326,1.3367233-9.8232117,3.1027527-14.2875977h213.1008453 c1.766037,4.464386,2.874649,9.2579651,3.1027527,14.2875977H18.3680744z M144.5161438,449.2941589h-32.9897842V346.7190247 h32.9897842V449.2941589z M82.3654633,317.261322h-1.9104614h-0.1294861h-1.9104614h-2.0399475H67.438385 c-7.4406319,0-13.7596893-4.8468933-15.9963608-11.5444336c-0.2734222-0.8177795-0.4781113-1.6636963-0.6240387-2.5315247 c-0.1274948-0.7615051-0.2056847-1.5379333-0.2276001-2.3298035c-0.0039825-0.1556396-0.023407-0.3072815-0.023407-0.4636536 v-66.9278412c0-15.6001587,12.1545219-28.3832092,27.4869995-29.4542389c0.67733-0.0473022,1.3521652-0.1025848,2.040947-0.1035767 c0.0104599,0,0.0209198-0.0014954,0.0313797-0.0014954c0.0672302,0,0.1319733,0.0094604,0.1992111,0.0099487 c0.6095963,0.0039978,1.208725,0.0510559,1.8093567,0.0916443c0.0762024,0.0052338,0.1538925,0.0059814,0.2305908,0.0119476 c0.6877823,0.0518036,1.3656082,0.1339722,2.0399475,0.2325897c2.3108749,0.3374176,4.5370941,0.9293365,6.6437759,1.7710114 c0.695755,0.2778931,1.3720856,0.5901642,2.040947,0.9183655c0.6957474,0.3416595,1.3750687,0.7069702,2.0389481,1.1001587 c8.6946793,5.1519165,14.5545502,14.6046143,14.5545502,25.423645v66.9278412c0,1.4368286,0.1797943,2.8363037,0.4636688,4.2011414 c0.1379547,0.6651306,0.3112717,1.3160706,0.5119781,1.9585266c0.098114,0.3140259,0.1812897,0.6342468,0.2938461,0.9422913 c0.1220169,0.3346863,0.2694321,0.6553955,0.4083862,0.9821167c0.1509018,0.3561096,0.3018036,0.7121887,0.4716339,1.0585632 c0.3456421,0.7029724,0.7301178,1.3813171,1.1494675,2.0392151c1.4014664,2.1973267,3.1819382,4.1391602,5.2851334,5.687561 H87.5908356h-3.1854248H82.3654633z M21.2387428,277.4006348C7.9312701,260.3539429,2.056459,239.1456451,4.7000241,217.682373 s13.4867649-40.6136932,30.5314865-53.9191742l65.6927032-51.2051392 c1.4014664,3.4322052,3.2785568,7.4600601,5.7791901,12.2190247c8.566185,16.3036499,21.951355,36.3923492,37.6872406,56.5687103 c4.5819092,5.8743134,9.7390594,12.1794281,15.1571655,18.4790649c0.5856934,0.6808014,1.1743622,1.3606262,1.7655334,2.0409393 h0.0005035c0.5916595,0.6805573,1.1833191,1.3601227,1.7799683,2.0389557 c11.8347931,13.4603577,24.5740051,26.4441071,35.210022,34.6781158c0.68927,0.5333862,1.3685913,1.0463715,2.0389557,1.5384216 c0.0547791,0.0398407,0.1085663,0.0791931,0.1623535,0.1185303l-0.1623535,0.1265106l-2.0389557,1.5894775l-63.4276428,49.4375916 c-3.2456818,2.5342712-6.6437683,4.7950745-10.1638794,6.7832336v-64.7125702 c0-12.742691-7.1228867-23.8523407-17.595047-29.5593109c-1.4706955-0.80159-3.0245667-1.4609833-4.6172791-2.0389557h-0.0004959 c-3.0898056-1.1213226-6.3828049-1.7954102-9.8152542-1.9592743c-0.537384-0.02565-1.0672913-0.081665-1.611145-0.081665 h-8.7076263h-2.2391586c-18.5487862,0-33.6392212,15.0904236-33.6392212,33.6392059v65.3216705 C36.8082848,293.5469055,28.2152042,286.3358765,21.2387428,277.4006348z M129.2145386,317.261322h-0.3376617 c-0.1892548-0.0926514-0.3944397-0.1568909-0.6105957-0.1872864c-4.0629578-0.5717468-7.6298828-2.5997314-10.2121887-5.5002747 c-0.5682602-0.6380005-1.0812302-1.3222961-1.5483856-2.0392151c-0.4253235-0.6531677-0.8113022-1.3319702-1.1444855-2.0406799 c-0.056778-0.1210327-0.1055832-0.2460327-0.1598663-0.3682861c-0.2749176-0.6230469-0.5174561-1.2612915-0.7161789-1.9187012 c-0.1957245-0.6476746-0.3540955-1.3088379-0.4706421-1.9841614c-0.1593704-0.9238586-0.2510071-1.8681335-0.2510071-2.8308105 v-66.9278412c0-12.287735-6.64328-23.0265961-16.5058441-28.8971863 c13.3383484,2.8522491,23.374733,14.7194061,23.374733,28.8971863v66.8523712v0.07547 c0,0.7121887,0.0577698,1.4129028,0.1289902,2.1096497c0.0732117,0.7164307,0.1932373,1.4189148,0.3386612,2.1146545 c0.2051926,0.9823914,0.4611816,1.9468384,0.8008423,2.877655c0.2554932,0.6992493,0.5543137,1.3765564,0.8805237,2.0406799 c0.3451385,0.7029724,0.7296219,1.3813171,1.1489639,2.0392151 C125.3308716,313.7710876,127.1113434,315.7129211,129.2145386,317.261322z M172.7626495,56.5630875l0.7958527,0.2253609 l-3.613739,12.76511l-10.1588898-2.8758926L172.7626495,56.5630875z M189.7296753,43.3380394l4.5848999,1.2978783 l-3.6132355,12.7646141l-12.10672-3.4272232l0.7102051-2.5098419L189.7296753,43.3380394z M196.0840912,38.3850899 l-0.6578979,2.3248215l-1.7052765-0.4828415L196.0840912,38.3850899z M218.3023987,21.0734215l-2.1186371,7.4839592 l-5.4953156-1.5558586l7.4550781-5.810564C218.195816,21.1501198,218.2500916,21.1137619,218.3023987,21.0734215z M224.0641479,17.0012455l11.7660522,3.3311024l-3.6132355,12.7636185l-12.1082001-3.4274712l3.5001831-12.3644447 C223.760849,17.204195,223.9117432,17.1001053,224.0641479,17.0012455z M331.782959,35.1857185 c0.9417725,1.2062378,1.8362427,2.4383736,2.7028198,3.6849556l-1.3491516,4.7661858l-12.1082153-3.4274712l3.6132507-12.764864 l0.3197327,0.0903931C327.3599243,29.9165173,329.6498718,32.4532547,331.782959,35.1857185z M258.5475464,184.7777405 l-12.1082153-3.4277191l3.6142273-12.766098l12.1077271,3.4277191L258.5475464,184.7777405z M264.1768188,190.6104736 l-3.9025879,3.041748l1.0867004-3.8388519L264.1768188,190.6104736z M242.0556335,180.1091766l-2.8014374-0.7931213 l-2.8617096-0.8100586l-5.9858704-1.6945496l1.5648193-5.5279388l0.7465515-2.637085l0.7385864-2.6096954l0.5637817-1.991394 l12.1082001,3.4277191l-3.613739,12.7661133L242.0556335,180.1091766z M154.839386,76.7127991l0.6061096-2.1410446 l1.2794495-4.5196609l12.1082153,3.4274673l-2.8836212,10.1877899l-0.6245422,2.2057953l-0.105072,0.3710327l-3.5295715-0.999054 l-8.5791321-2.4284134l1.1374969-4.017395L154.839386,76.7127991z M229.7676392,164.0938873l-0.7405853,2.6156769 l-2.5449524,8.9910126l-12.1072083-3.427475l3.613739-12.766098l7.7279968,2.187851l3.0399933,0.860611l1.3392181,0.3789978 L229.7676392,164.0938873z M234.4372101,208.7730255c-3.1515656-2.4747314-6.6771545-5.5032654-10.5140076-9.0589905 l0.6474457-2.2872162l12.1082153,3.427475L234.4372101,208.7730255z M220.1909332,196.1867065l0.4552002,0.1289978 l-0.0687256,0.2425385C220.4484253,196.4342346,220.3209229,196.3119659,220.1909332,196.1867065z M221.7572479,192.3911896 l-7.5163269-2.1278381c-1.2550507-1.2824402-2.5319977-2.6099548-3.8318787-3.9820404l2.8547363-10.0836945l12.1072083,3.427475 L221.7572479,192.3911896z M171.7038269,139.4870148l2.9120026-10.2863922l12.1077118,3.4272156l-3.6142426,12.7661133 l-8.8988647-2.5190582C173.3632813,141.7376404,172.5235901,140.6056061,171.7038269,139.4870148z M168.0333099,91.2815475 l0.0348663,0.0099564l4.0041962,1.1332779l3.8851624,1.0999069l4.1829834,1.184082l-0.695755,2.45755l-0.6329956,2.2364197 l-0.6404724,2.2608261l-1.6445007,5.8098145l-12.1072235-3.4274673L168.0333099,91.2815475z M290.5098877,71.8664322 l-3.6132507,12.7656097l-12.1076965-3.4274673l3.6137085-12.7653656L290.5098877,71.8664322z M279.5142822,64.5139542 l3.6132202-12.7651138l12.1072083,3.4274712l-3.6132202,12.7648659L279.5142822,64.5139542z M275.5892639,63.4028397 l-12.1082153-3.4277191l3.613739-12.7648659l12.1082153,3.4277191L275.5892639,63.4028397z M274.4781494,67.3283463 l-3.613739,12.7651138l-12.1081848-3.427475l3.6137085-12.7653618L274.4781494,67.3283463z M269.7532959,84.0189667 l-3.613739,12.7658539l-12.1082001-3.4277191l3.6137543-12.7656097L269.7532959,84.0189667z M254.8316956,75.5548706 l-12.1082001-3.4274673l3.613739-12.7651138l12.1082001,3.4274712L254.8316956,75.5548706z M253.7200928,79.4803772 l-3.613739,12.7656097l-12.1072083-3.4274673l3.6132355-12.7656097L253.7200928,79.4803772z M248.9952393,96.1717453 l-3.613739,12.7651138l-12.1072083-3.427475l3.6132355-12.7651138L248.9952393,96.1717453z M234.0741425,87.7076492 l-12.1072083-3.4274673l3.6137238-12.7653656l12.1072083,3.4272232L234.0741425,87.7076492z M232.963028,91.6334076 l-3.613739,12.7651138l-12.1072083-3.427475l3.6132355-12.7651138L232.963028,91.6334076z M228.2381744,108.324028 l-3.6132355,12.7651138l-12.1077118-3.427475l3.6132355-12.7648621L228.2381744,108.324028z M217.4706726,146.362381 l-0.705719,2.4926605l-1.5897217,5.616333l-12.1082001-3.427475l3.613739-12.7661133l2.8103943,0.7956085l3.2785645,0.9281006 l3.2063446,0.9074097l2.8128967,0.7963562l-0.6170654,2.1793976L217.4706726,146.362381z M191.4483948,115.9364777 l-0.1389618,0.4898148l-3.4752808,12.2767868l-12.1072083-3.4274673l3.613739-12.7666016l11.3790894,3.221283 L191.4483948,115.9364777z M190.648056,133.7389526l12.1082001,3.4277191l-3.613739,12.7661133l-12.1082001-3.4279633 L190.648056,133.7389526z M201.9564056,154.9684143l12.1077118,3.427475l-3.613739,12.766098l-12.1082001-3.4274597 L201.9564056,154.9684143z M211.9056396,135.5174408l-3.2616272-0.9233551l-0.8521271-0.2413025l0.1787872-0.6305084 l0.6907806-2.4406128l2.7446594-9.6952362l12.1077118,3.427475l-3.6142426,12.7666016L211.9056396,135.5174408z M213.3175659,99.8599319l-12.1087036-3.4277191l3.6132355-12.7648621l12.1087036,3.427475L213.3175659,99.8599319z M212.2059631,103.7859421l-3.613739,12.7646103l-12.1082153-3.4274673l3.613739-12.7648697L212.2059631,103.7859421z M207.4815979,120.4753113l-1.9403381,6.8544464l-0.6837921,2.4152222l-0.6867981,2.425415l-0.303299,1.0715179 l-12.1087036-3.4277191l2.7232513-9.6202698l0.6703491-2.367157l0.2206268-0.7791748l2.2874756,0.6474457L207.4815979,120.4753113z M192.6247406,111.7813797l-0.0652313,0.2305908l-3.1455841-0.8904877l-3.5798798-1.0132523l-5.3822479-1.523735 l0.9641876-3.4055557l0.6449585-2.2785034l0.6369934-2.2511139l1.3670959-4.8294373l12.1077118,3.4274673L192.6247406,111.7813797z M175.4161682,111.39814l-3.613739,12.7666092l-12.1076965-3.4274673l3.6142273-12.7666092L175.4161682,111.39814z M170.69133,128.0895081l-2.0349731,7.1891174c-2.3776245-3.3183899-4.622757-6.5436707-6.744873-9.6745605L170.69133,128.0895081z M181.9981995,149.3187103l-0.780426,2.7571106c-0.9965668-1.2794495-1.9796906-2.5514221-2.9438782-3.8114471 L181.9981995,149.3187103z M185.9232025,150.4298248l12.1082001,3.427475l-3.613739,12.7661133l-1.9089661-0.5403748 c-2.6754303-3.2053528-5.4006805-6.5484009-8.1737366-10.0433502L185.9232025,150.4298248z M197.2310638,171.6590271 l12.1082001,3.4277191l-2.1843719,7.7162933c-3.1963806-3.4620819-6.5097961-7.1751709-9.9243317-11.1425171 L197.2310638,171.6590271z M228.2536163,158.1737518l-3.0419922-0.8610992l-3.072876-0.8700562l-3.0390015-0.8603516 l0.695755-2.4585571l0.7181549-2.5359802l0.7082062-2.5018768l1.4916229-5.269455l12.1072083,3.4272308l-3.613739,12.766098 L228.2536163,158.1737518z M223.8246002,138.8913727l3.6137238-12.7666092l12.1077118,3.4274673l-3.6142273,12.7666168 L223.8246002,138.8913727z M228.5494385,122.2002563l3.6132507-12.7651138l12.1076965,3.4274673l-3.6137238,12.7651138 L228.5494385,122.2002563z M243.4705505,130.6633453l12.1082001,3.427475l-3.6142273,12.7666016l-12.1082153-3.4274597 L243.4705505,130.6633453z M244.5811615,126.7385864l3.613739-12.7651138l12.1082001,3.4277267l-3.613739,12.7651062 L244.5811615,126.7385864z M249.3065186,110.0477219l3.6137238-12.7651138l12.1082001,3.427475l-3.613739,12.7656097 L249.3065186,110.0477219z M264.2281189,118.5118103l12.1076965,3.427475l-3.613739,12.7656097l-12.1076965-3.427475 L264.2281189,118.5118103z M265.3392334,114.5865555l3.613739-12.765358l12.1072083,3.4274673l-3.6132507,12.7653656 L265.3392334,114.5865555z M270.0640869,97.8956909l3.613739-12.7656174l12.1076965,3.4272232l-3.613739,12.7658615 L270.0640869,97.8956909z M284.9851685,106.3595276l12.1077271,3.4272232l-3.613739,12.7656097l-12.1076965-3.4274673 L284.9851685,106.3595276z M286.096283,102.4342728l3.613739-12.7661057l12.1077271,3.4274673l-3.6142578,12.7661133 L286.096283,102.4342728z M290.8211365,85.7431564l3.613739-12.7656097l12.1077271,3.4274673l-3.613739,12.7656174 L290.8211365,85.7431564z M295.54599,69.0520401l3.6132507-12.7646141l12.1081848,3.4274712l-3.6137085,12.7648621 L295.54599,69.0520401z M300.2708435,52.3609238l3.6132507-12.7636185l12.1081848,3.4274712l-3.6132202,12.7636185 L300.2708435,52.3609238z M310.4671021,77.5158844l12.1082153,3.4277191l-3.613739,12.7656097l-12.1082153-3.4277191 L310.4671021,77.5158844z M311.5787048,73.5906296l3.6132507-12.7648697l12.1081848,3.4277191l-3.6132202,12.7651138 L311.5787048,73.5906296z M316.3035583,56.8992615l3.6132507-12.7633705l12.1081848,3.4274712l-3.6132202,12.7636185 L316.3035583,56.8992615z M317.1039124,39.0982742l-12.1082153-3.4274712l3.6132507-12.764864l12.1081848,3.4277191 L317.1039124,39.0982742z M309.7205505,18.9791889l0.8043213-2.8412857 c2.5449524,1.5688076,5.0102234,3.2944965,7.3928223,5.1618748L309.7205505,18.9791889z M305.7955322,17.8683224 l-12.10672-3.4272213l1.5862427-5.6028843c3.9802856,1.4193974,7.8644714,3.1440897,11.6076965,5.1895161L305.7955322,17.8683224z M304.6844177,21.7948246l-3.613739,12.764864l-12.1066895-3.4274712l3.6137085-12.7646141L304.6844177,21.7948246z M299.9595642,38.4861908l-3.6132202,12.7636185l-12.1072083-3.4274712l3.6132202-12.7636185L299.9595642,38.4861908z M285.0394592,30.0213528l-12.1087036-3.427721l3.613739-12.7646141l12.1082153,3.4274712L285.0394592,30.0213528z M283.9278564,33.9478531l-3.6132507,12.7636185l-12.1087036-3.4277191l3.613739-12.7636185L283.9278564,33.9478531z M269.0062561,25.4825191l-12.1082153-3.4274712l3.6132507-12.7648649l12.1081848,3.4277201L269.0062561,25.4825191z M267.8946533,29.4090195l-3.6132507,12.7638702l-12.1082001-3.4277229l3.6132355-12.7636185L267.8946533,29.4090195z M263.1697998,46.0993881l-3.6132507,12.7648659l-12.1082001-3.4277191l3.6132355-12.7648659L263.1697998,46.0993881z M248.2486877,37.634304l-12.1072083-3.4272232l3.613739-12.7638683l12.1067047,3.4272213L248.2486877,37.634304z M247.1370697,41.5608025l-3.6132355,12.7648659l-12.1072083-3.4274712l3.613739-12.7646141L247.1370697,41.5608025z M242.4127197,58.2511749l-3.613739,12.7651138l-12.1072083-3.427475l3.613739-12.7648621L242.4127197,58.2511749z M227.4921112,49.7870827l-12.1087036-3.4274712l3.613739-12.7646141l12.1082153,3.4274712L227.4921112,49.7870827z M226.3809967,53.7130852l-3.6137238,12.7648659l-12.1087036-3.4277191l3.6137238-12.7648659L226.3809967,53.7130852z M221.6556549,70.4037018l-3.613739,12.7656174l-12.1082001-3.4279709l3.613739-12.7651138L221.6556549,70.4037018z M206.7340546,61.9391174l-12.1077118-3.4274712l3.6132355-12.7648659l12.1077118,3.4277191L206.7340546,61.9391174z M205.6229401,65.8651199l-3.613739,12.7653656l-12.1082001-3.4277267l3.613739-12.76511L205.6229401,65.8651199z M200.8975983,82.5562363l-3.613739,12.7651138l-12.1072083-3.4274673l3.6132355-12.7648697L200.8975983,82.5562363z M185.9764862,74.0918961l-12.1072083-3.4272232l3.613739-12.76511l12.1072083,3.4269714L185.9764862,74.0918961z M184.8653717,78.0181503l-3.6132355,12.7646179l-11.1738892-3.1630173l-0.9338226-0.2644577l0.1439362-0.5089874 l3.4698029-12.2556305L184.8653717,78.0181503z M164.1083069,90.1706772l-3.6132355,12.7643738l-12.1082153-3.4277267 l3.6132507-12.7643661L164.1083069,90.1706772z M159.3839569,106.8598022l-2.9573212,10.4457703 c-3.109726-4.8438797-5.8713379-9.3971558-8.2967529-13.631691L159.3839569,106.8598022z M144.7143555,97.5034866 c-2.8328094-5.3080444-5.0371094-9.9828491-6.6118927-13.9247894l0.7241364-0.5647659l9.2484894,2.6181641L144.7143555,97.5034866z M238.0539246,210.9723511l2.5494385-9.0069427l6.6064301,1.8701172L238.0539246,210.9723511z M237.7899628,196.9297791 l-12.1082001-3.427475l3.613739-12.766098l10.0637817,2.8487549l2.0444183,0.5787048l-0.5896606,2.0832825L237.7899628,196.9297791 z M235.1314697,160.120575l3.6137238-12.7661133l12.1082153,3.4277191l-3.613739,12.7661133L235.1314697,160.120575z M251.1641846,164.6591644l3.6137238-12.7661133l12.1082001,3.4277191l-3.6137085,12.7661133L251.1641846,164.6591644z M255.8890228,147.9685364l3.6142426-12.7666016l12.1076965,3.427475l-3.6142273,12.7666016L255.8890228,147.9685364z M270.8106384,156.4316406l12.1072083,3.4274597l-3.613739,12.7661133l-12.1072083-3.427475L270.8106384,156.4316406z M271.9217529,152.5071259l3.613739-12.7666016l12.1076965,3.4274597l-3.6142273,12.7666168L271.9217529,152.5071259z M276.6466064,135.8157654l3.613739-12.7653656l12.1072083,3.4274673l-3.613739,12.765358L276.6466064,135.8157654z M291.567688,144.2788544l12.1082153,3.4277191l-3.613739,12.7666016l-12.1087036-3.4277191L291.567688,144.2788544z M292.6788025,140.3540955l3.613739-12.765358l12.1082153,3.4277115l-3.613739,12.7656097L292.6788025,140.3540955z M297.403656,123.663475l3.613739-12.7656097l12.1082153,3.427475l-3.613739,12.7658615L297.403656,123.663475z M302.1285095,106.9728622l3.613739-12.7661133l12.1087036,3.427475l-3.6142273,12.7661057L302.1285095,106.9728622z M317.0501099,115.4364548l12.1087036,3.4277191l-3.613739,12.7658615l-12.1087036-3.4279785L317.0501099,115.4364548z M318.1617126,111.5114441l3.613739-12.7661057l12.1082153,3.4274673l-3.613739,12.7663574L318.1617126,111.5114441z M322.8865662,94.8203278l3.613739-12.7658615l12.1087036,3.4277191l-3.6142273,12.7656097L322.8865662,94.8203278z M327.6114197,78.1294632l3.613739-12.7648697l12.1082153,3.427475l-3.613739,12.7651138L327.6114197,78.1294632z M332.3367615,61.4380951l3.6127625-12.7636185l5.0769653,1.4373245c1.7555542,3.6565666,3.2242432,7.4254417,4.401123,11.2824669 l-0.9826355,3.4712944L332.3367615,61.4380951z M337.0611267,44.7479744l0.3695374-1.3043518 c0.3396606,0.5657654,0.6932678,1.1250572,1.0189819,1.6973L337.0611267,44.7479744z M289.7643127,13.3299866 l-12.1087036-3.4274702l1.4243774-5.0306435c4.1635742,0.5769725,8.281311,1.4776673,12.3163757,2.6923728L289.7643127,13.3299866z M273.7311096,8.7914019l-12.1082153-3.4277201l0.2993164-1.0575757c4.3528137-0.3192399,8.7171021-0.2784009,13.0505066,0.1001048 L273.7311096,8.7914019z M256.5867615,8.1793175l-3.6137238,12.764616l-12.1067047-3.4272232l2.7496338-9.7139063 c1.9672394-0.6178112,3.951416-1.1492138,5.9470367-1.6118875L256.5867615,8.1793175z M238.9135284,9.4408379l-1.9717102,6.9650078 l-8.0781097-2.286973C232.1333008,12.3130016,235.4910431,10.7541542,238.9135284,9.4408379z M215.0726471,32.4838829 l-3.613739,12.7646141l-12.1082153-3.4277191l2.1729279-7.6754532l5.173584-4.0325832L215.0726471,32.4838829z M151.6445007,73.0233612l-0.2888489,1.0204773l-0.5752411,2.0314789l-1.5937042,5.6302795l-6.3683624-1.802887l6.395752-4.9850693 l1.6166229-1.2597809L151.6445007,73.0233612z M252.0955048,200.0270538l-0.8959656,0.6987457l-1.1738586-0.3321838 l-2.5115967-0.7109528l-5.7996063-1.6417694l1.8721161-6.6136475l0.8142853-2.8759003l0.7918701-2.7989502l0.1354675-0.4776154 l12.1082153,3.427475l-2.6012421,9.1897278L252.0955048,200.0270538z M268.1665649,187.5005035l-5.694519-1.6118927 l3.613739-12.7658539l12.1072083,3.4269714l-1.1390076,4.0231171L268.1665649,187.5005035z M304.7148132,159.0124512 l2.8855896-10.1947632l7.4779968,2.1166534L304.7148132,159.0124512z M328.35849,136.6659088l1.5857239,0.4489746 c-0.81427,0.9646912-1.65448,1.910202-2.516571,2.8390503L328.35849,136.6659088z M332.6993408,133.6550446l-3.2297363-0.9141541 l3.6137085-12.7658539l6.9620361,1.9707184C337.9446411,126.0510559,335.4838562,129.9623718,332.6993408,133.6550446z M334.1944275,116.0500336l3.6142578-12.7661133l8.4322205,2.3870773 c-1.1305542,4.3194504-2.5967712,8.5133972-4.4021301,12.5429916L334.1944275,116.0500336z M91.0491867,243.7992706 c0.7769318-0.879776,1.4672089-1.8362427,2.040947-2.8691711c1.2953873-2.3322906,2.0389481-5.0112152,2.0389481-7.8624573 c0-2.8512573-0.7435608-5.5301819-2.0389481-7.8624725c-0.5737381-1.0329132-1.2640152-1.9893951-2.040947-2.8691711 c-1.7849579-2.022522-4.0609741-3.5923157-6.6437759-4.5311127c-0.6628799-0.2410583-1.3407059-0.4487305-2.0399475-0.6023712 c-0.1414413-0.0311279-0.2828827-0.0605164-0.4253235-0.0876617c-0.5299072-0.101593-1.0677795-0.1770477-1.614624-0.2258606 c-0.1394501-0.0121918-0.2818909-0.0124512-0.4223328-0.0214081c-0.341156-0.0214233-0.6798172-0.0518036-1.0259552-0.0518036 c-0.3421478,0-0.6768265,0.0303802-1.0139923,0.0513c-0.243042,0.0151978-0.4890747,0.019928-0.729126,0.045578 c-0.5732346-0.0615082-1.1539459-0.0968781-1.7431183-0.0968781c-8.9606323,0-16.2518501,7.2912292-16.2518501,16.2518616 s7.2912178,16.2518463,16.2518501,16.2518463c0.5891724,0,1.1698837-0.0353546,1.7431183-0.0968628 c0.0826797,0.0089569,0.1663437,0.0136871,0.2495193,0.0211639c0.4925537,0.0453186,0.9895935,0.0756989,1.4935989,0.0756989 c0.1842728,0,0.3625717-0.0214233,0.5453491-0.0276489c0.3023071-0.0102081,0.6051102-0.019165,0.9029388-0.0455627 c0.3854752-0.0343628,0.7629852-0.092392,1.1404953-0.1531525c0.3018112-0.0485535,0.6036224-0.0953674,0.8994522-0.1603546 c0.6992416-0.153656,1.3770676-0.3613281,2.0399475-0.6023712 C86.9882126,247.3916016,89.2642288,245.8217926,91.0491867,243.7992706z M63.2190361,233.0676422 c0-4.5520325,2.5160713-8.5228577,6.2264214-10.6103668c1.7600555-0.9903412,3.7860565-1.5615997,5.9455338-1.5615997 c0.5936584,0,1.1723709,0.0572815,1.7431183,0.1394501c0.2226257,0.0323792,0.4472351,0.0580292,0.6663742,0.1020966 c0.7017288,0.141449,1.3775635,0.3518677,2.0299835,0.6088562c0.1668396,0.0654907,0.3321915,0.1322327,0.4950485,0.2049408 c0.5323944,0.2370605,1.0418854,0.5144653,1.5309525,0.8224945c0.1718292,0.1083221,0.3426514,0.2169037,0.5089951,0.3336945 c0.7470474,0.525177,1.42836,1.1347656,2.0399475,1.8105927c1.9552841,2.1602325,3.1575394,5.0137177,3.1575394,8.1498413 c0,3.1361084-1.2022552,5.9896088-3.1575394,8.149826c-0.6115875,0.675827-1.2929001,1.2854309-2.0399475,1.8106079 c-0.2644577,0.1855164-0.5383759,0.3565826-0.817276,0.5211945c-0.3949432,0.2325745-0.8008347,0.4472351-1.2226715,0.6349945 c-0.2719269,0.1212616-0.5503311,0.2270966-0.8322144,0.3286896c-0.6588974,0.2368164-1.3422012,0.4188538-2.0474167,0.5393829 c-0.1035919,0.0176697-0.2076797,0.032608-0.3117752,0.0478058c-0.5707474,0.0821686-1.1494598,0.1394501-1.7431183,0.1394501 c-2.157486,0-4.1814957-0.5702515-5.9405518-1.5588531C65.7370987,241.5939789,63.2190361,237.6216583,63.2190361,233.0676422z" fill="#131314"/></g></g></svg>